<svg xmlns="http://www.w3.org/2000/svg" xmlns:xlink="http://www.w3.org/1999/xlink" width="617" height="465" fill="none"><style><![CDATA[.B{stroke-linecap:round}.C{stroke:#171c26}.D{stroke-linejoin:round}.E{fill:#ffa08c}.F{fill:#1b49db}.G{fill:#171c26}.H{fill:#02cbff}.I{fill:#3e64ff}.J{fill:#85a0f9}.K{fill:#e97474}.L{fill:#d4ddf9}.M{fill:#5edfff}.N{fill:#b5c4f9}.O{fill:#c4d1f9}.P{fill:#dd584a}.Q{fill:#fdad00}.R{fill:#e4e9f9}.S{fill:#f8cd6e}.T{fill:#fcf6de}.U{fill:#feeeb7}]]></style><path d="M555.76 178s-32.08-55.18-89.93-43.68c-43.25 8.6-66.84 35.25-92.5 48.35l-56.4 1.45c-40.05-13.65-94.84-44.77-150.7-29.12-70.9 19.83-82.73 35.1-82.73 35.1S20.3 257.5 68.28 349s133.5 111 205.5 115.5 177-85.5 177-85.5 96-15 114-91.5-9-109.5-9-109.5z" class="R"/><path d="M216.3 195.1l-12 121.07 94.5-.1-8.14-127.87-74.38 6.9z" class="I"/><g class="L"><path d="M451.57 205a1.15 1.15 0 0 0 .61-.39c.24-.3 22.9-34.32 16.95-66.8-5.58-30.55-32.35-52.27-42-52a1.1 1.1 0 0 0-.9 1.68 1.1 1.1 0 0 0 .97.52c7.6-.2 34.22 19.8 39.77 50.2 5.68 31.07-16.28 64.76-16.5 65.06a1.1 1.1 0 0 0 .18 1.54 1.12 1.12 0 0 0 .93.19z"/><path d="M434.63 89.43s-2-13.9-1.28-15.48 9.18 13.28 6.8 19.13-19.08 5.3-19.85 3.8 14.32-7.45 14.32-7.45zm13.17 11s-.05-18.86 1.27-20.8 9.65 19.4 5.37 26.73-26.36 3.4-27.1 1.23 20.45-7.15 20.45-7.15zm12.64 15.88s6.36-17.75 8.27-19.14 2.47 21.52-4 27-25.95-5.78-25.9-8.06 21.63.2 21.63.2zm8 20.7s13.1-13.57 15.4-14.06-6.57 20.65-14.74 22.93-21.3-15.9-20.3-18 19.66 9.13 19.66 9.13zm-.63 20.75s16.26-12.54 18.82-12.7-10.37 21.2-19.53 22.36-20.4-20.53-19-22.6 19.7 12.93 19.7 12.93zm-4.2 19.88s20.34-10.53 23.18-10.2-15.6 21.2-25.87 20.65-18.32-26.6-16.4-28.57 19.08 18.1 19.08 18.1zM455.43 197s21.66-7.43 24.42-6.68-18.54 18.68-28.63 16.6-14.2-29-12-30.67 16.2 20.75 16.2 20.75zM431.1 86.52s-4.37-8.16-16.4-6.63c0 0 4.6 11.13 15.8 8.86l.6-2.23z"/></g><path d="M563.1 301.7l-3.4-20.1s-8.06-1-6.9-4.34 6.32-4.1 6.32-4.1l-.15-13s-13.06 1.8-11.28-2.76 11.56-3.82 11.56-3.82l3.35-17.78s-13.3.07-10.82-4.64 16.5-.95 19.27-10.9 2.84-11.6 2.84-11.6-11.8 2.1-10.35-2.53 11.1-3.27 13.9-9.23 2.5-15.67 2.5-15.67-8.8 2-12.37.3-1.2-7.94.35-8.88 10.75 1.13 13.2-3.25 1.85-14.83.62-18c0 0-5.15 4.06-8 2.35s.08-7.12 1.8-8.7 5.46-4 6.35-6.25-1.28-11.77-2.7-13.45c0 0-3.1 3.23-7 2.1s1.85-6.2 2.57-10.5-6.84-13.47-8.73-15.26c0 0-3.9 4.37-6.7 4.34s-.56-9.93-1.94-12.43-9.86-6.56-16.48-8-10.18-.5-10.18-.5 12.8 25.72 13.18 42.6.88 32.16-8.86 64.77-11.72 73.33 12.37 110.67l15.7-1.44z" class="N"/><path d="M554 303.06a.49.49 0 0 1-.41-.21c-25-34.63-13.56-88.1-5.2-127.14 3-14 5.6-26.12 5.56-33.8-.15-27.9-15.58-50.75-15.73-51a.5.5 0 0 1 .82-.56c.16.23 15.76 23.33 15.9 51.54 0 7.8-2.56 19.94-5.58 34-8.32 38.85-19.72 92.07 5 126.35a.5.5 0 0 1-.11.69.46.46 0 0 1-.26.14z" class="J"/><path d="M517.35 300.7l-1.24-17.4s6.5-2.44 4.87-5-6.1-2.14-6.1-2.14l-2.5-10.84s11.23-1.15 8.83-4.58-10.4-.83-10.4-.83l-6.38-14.13s11.08-2.63 8.07-6-13.93 2.54-18.25-5.18-4.7-9.08-4.7-9.08 10.25-.64 8.1-4.2-9.9-.48-13.42-4.88-5.25-12.58-5.25-12.58 7.72-.1 10.35-2.25-.6-6.85-2.08-7.32-8.73 3.12-11.65 0-4.53-12-4.14-14.8c0 0 5.1 2.33 7.17.33s-1.5-5.9-3.25-6.88-5.34-2.2-6.54-3.92-1.32-10-.48-11.73c0 0 3.24 2.05 6.25.34s-2.8-4.78-4.26-8.22 3-12.6 4.18-14.46c0 0 4.12 2.85 6.46 2.26s-1.55-8.4-.9-10.74 6.87-7.46 12.1-10 8.37-2.47 8.37-2.47-5.46 24-2.36 38.1 5.8 26.9 20.47 52.07 24.57 58.64 12.07 94.58l-13.4 1.96z" class="O"/><path d="M525.1 300.07a.55.55 0 0 1-.19 0c-.123-.05-.222-.145-.275-.267s-.054-.26-.005-.383c13.66-33.5-6.58-75.46-21.35-106.1-5.35-11.1-10-20.7-11.52-27.2-5.6-23.52 2.73-45.92 2.82-46.14a.5.5 0 0 1 .883-.18.5.5 0 0 1 .047.53c-.08.22-8.3 22.34-2.78 45.56 1.52 6.4 6.12 15.94 11.45 27 14.86 30.8 35.2 73 21.38 106.9a.49.49 0 0 1-.46.27z" class="J"/><g class="L"><path d="M84.8 202.93a1 1 0 0 1-.54-.38c-.2-.28-19.34-32.17-12.56-61.45 6.38-27.53 31.64-46.1 40.4-45.48.552.04.97.518.93 1.07s-.518.97-1.07.93c-6.9-.5-31.95 16.53-38.3 43.94-6.5 28 12 59.56 12.22 59.83a1 1 0 0 1-1.07 1.55v-.01z"/><path d="M105.13 98.6s2.46-12.55 1.83-14-8.9 11.68-7 17.1 17.1 5.64 17.87 4.3-12.7-7.4-12.7-7.4zM92.7 108s.84-17.14-.27-19-9.6 17.22-6 24.06 23.82 4.2 24.57 2.28S92.7 108 92.7 108zm-12.17 13.94s-5-16.4-6.7-17.75-3.16 19.46 2.52 24.67 23.83-4.14 23.88-6.2-19.7-.7-19.7-.7zm-8.15 18.5S61.07 127.53 59 127s5.1 19 12.42 21.47 20-13.56 19.23-15.47-18.27 7.43-18.27 7.43zm-.3 18.87S57.83 147.2 55.5 147s8.5 19.65 16.8 21.1 19.42-17.8 18.26-19.72-18.5 10.9-18.5 10.9zM75 177.54S57 167.1 54.4 167.3s13.27 19.93 22.6 19.87 17.78-23.38 16.12-25.27S75 177.54 75 177.54zm6.64 17.93s-19.38-7.68-21.92-7.12S75.78 206.12 85 204.7s14.16-25.75 12.24-27.37-15.6 18.15-15.6 18.15zm26.84-99.37s4.32-7.22 15.18-5.32c0 0-4.66 9.92-14.74 7.38l-.44-2.06z"/></g><path d="M536.52 332.16c1.23-.9 25.42-23.66 38.6-28.25l5.4-7.77s-8.92.43-10.67-1.4 2.16-4.07 5-5.44 6.43-2.55 7.64-3.86 3.27-11.17 3.27-11.17-6.74 2.46-9.55.46-2.57-4 0-5.47 11.46-2.94 13.3-4.9 3.56-8.87 3.56-8.87-12.1 2.56-12.84-.15 2.13-4.92 4.32-5.53 9.7-2.14 11.32-3.9 2.48-9.66 2.48-9.66-8.67 1.48-10.14-1.1 5.2-4.5 9.08-4.75 7.08-7.62 7.08-7.62-9-.1-8.82-2.52 5.62-4.52 9.34-3.5l11.63-22.57s-16-2.1-26.7 7.46c0 0-1.83 10.16-4.17 10.72s-4.72-8-4.72-8a11.88 11.88 0 0 0-10.53 5.44s1 9.12-1.44 12.05-6.4-6.55-6.4-6.55-7.54 4.5-10.54 11.4c0 0 6.76 12.05 5.28 14.63s-9.16-8.8-9.16-8.8-8.3 10.56-7.52 14.32 10.62 9.86 9.45 12.43-10.52-3.08-10.52-3.08-3.32 8.48-3.52 11.64 7.7 7.45 6.72 11.1-5.6 1.8-7.08.42-3.9 1.25-4.22 5.2 5 15.9 2.42 22.94-8.48 18-8.48 18l11.15 6.62z" class="R"/><path d="M532.2 328.45c-.1.002-.197-.026-.28-.08-.1-.073-.186-.188-.21-.318a.49.49 0 0 1 .081-.372c24.1-36.13 30.46-55.53 35.57-71.12l2.9-8.6c6.25-17.5 20.84-32.67 21-32.82a.5.5 0 0 1 .72.69c-.15.15-14.6 15.2-20.77 32.47-1 2.8-1.92 5.6-2.9 8.6-5.13 15.64-11.52 35.1-35.7 71.35a.5.5 0 0 1-.43.22z" class="J"/><path d="M111.54 192.07S74 277.63 63.62 339.4c1.43 3.17 3 6.37 4.66 9.6 31.6 60.25 79.48 89.28 129.05 103.37 1.02-.64 1.872-1.51 2.5-2.54 11.5-20 5.5-45-5.52-75.34s0-163.47 0-163.47l-12.64-10c-.86-6.1-4.8-11-6.87-13.23l-60.08 1.54-3.17 2.74z" class="H"/><path d="M218.32 299.9s2.78 21.15 7.14 32.54 16.36 45.38 16.36 45.38l-23.5 12.34s-23.5-16.44-39.74-78.64l39.74-11.62z" fill="#f77e6d"/><path d="M131.32 183.58s-.75 3.25-7.5 0 2.25-12.75 0-17-17.25-15.5-11.75-35 32.75-27.25 33.87-32-2.37-23 8.13-20.25 11.5 9.94 11.5 9.94-.25-15.17 8-14.68 17.7 18.23 12 40.23l-47.23 67.1-7.02 1.67zm99.36-167.2s7.84-12.5 23-10.75 21 11.12 21.58 17.9-.43 14 2.7 17.05 13.87 5.5 16.63 14.75-2.87 15.65 3.57 20 7.44 9.82 6.66 19.43-68 40.9-86.54 12.34 2.74-33 1.7-40.67-24.6-37.57 10.72-50.06z" class="G"/><path d="M236.76 68.8a12.62 12.62 0 0 0-2.93.41c-6.3 1.64-29.7 8.94-34 27.8-5 21.82-5.12 53.7-5.12 53.7h22.8l-6.23 57.12h97.65l-1.25-57.17H319s3.37-84.08-57.63-82.45l-24.6.6z" class="F"/><path d="M225.46 107.58h14.6v3.13h-14.6z" class="C D"/><path d="M286.87 73.82v82h20.9l-.1-5.17H319s2.28-58.25-32.13-76.83zm-69.05 79.5l2-78.74c-8.35 4.3-17.42 11.38-20 22.42-5 21.82-5.12 53.7-5.12 53.7h22.8l-.3 2.7.62-.07z" class="I"/><path d="M219.77 74.6l-.98 39.4" class="B C D"/><path d="M404.5 246.78l-40.67 2.05-14.58 16.1c-2.58 3.1-6.42 36.4-6.67 42.47-.2 5.26 45.06 87.93 56.93 109.5 13.9-9.1 25.9-17.9 34.8-24.73l-29.82-145.4z" class="H"/><path d="M273.9 157.2l-11.1 15.66 21.77 24.36 14.23-21.05-18-20.33-6.9 1.36z" class="E"/><path d="M373.82 82.33s56.36 7.84 72.5 93h-42.74l8.26 71.45s-22.27 15.9-71.84 13.47-58.46-6.36-58.46-6.36l9.83-81-20.7-18.63s14.58-78.93 103.16-71.93z" class="M"/><path d="M270.6 154.23l20.7 18.63-.4 3.3c4.82-2.72 10-8.08 10-8.08l-27.3-24.35a76.61 76.61 0 0 0-3.02 10.5z" class="H"/><path d="M291.32 172.86s7.48-38.53 19.24-53.53m32-19.75S334.3 158 336.8 222.9" class="B C D"/><path d="M255.32 174.58c.25-1.12 1.72-14 10-14s.94 9.1 1.86 11 23.62 6.86 18.08 23.56c0 0-1.58 6.2-3.75 6.7s-9.17 1.38-9.17 1.38-7-2.63-8.87-4.5a26.01 26.01 0 0 1-5.88-8.6c-1.5-3.78-3.12-6-3.12-8.2.148-2.457.43-4.904.85-7.33z" class="K"/><path d="M249 191.15a20.18 20.18 0 0 1 7.07-20.48c2.5-1.93 5.28-3.15 7.93-2.34 7.43 2.27 4.5 7.84 3.17 11 0 0 2.33-3.28 7.16-1.8s2.34 7.47 2.34 7.47 4.83-2.33 6.5.83-1.67 8.5-1.67 8.5 4.17-1.9 5.17.8-1.5 14.05-8.84 16.45-23.4-3.1-26.95-13.76a67.57 67.57 0 0 1-1.88-6.68z" class="E"/><path d="M267.16 179.33s-5 2.84-5.34 8.5m14.84-2.83s-4.34 2-5.5 6.42m10.34 2.9s-2.92 3.25-3.17 5.75" class="B C D"/><path d="M401 182.83s-22.3-16.33-26.16-14.33-2.64 7.33 5.1 13c0 0-15.5-3.67-19.2 1.33s10.6 8 10.6 8-12.17-1.72-12.08 4.35 12.93 6.65 12.93 6.65 6.15 7.6 13.65 8.66 9.84.57 9.84.57l11.44 3.48 7.9-27.7-14-4z" class="E"/><path d="M342.57 99.58l21.25 14s12.25-8.5 10-31.25l-31.25 17.25z" class="H"/><path d="M356.34 3.5c1.602 0 2.9-.672 2.9-1.5s-1.298-1.5-2.9-1.5-2.9.672-2.9 1.5 1.298 1.5 2.9 1.5z" fill="#0cd0e5" stroke="#000"/><path d="M356.45 60.6c16.226 0 29.38-13.154 29.38-29.38S372.676 1.83 356.45 1.83s-29.38 13.154-29.38 29.38 13.154 29.38 29.38 29.38z" class="M"/><path d="M404.47 49.656c.93-19.042-19.33-35.507-45.258-36.775s-47.698 13.14-48.63 32.183 19.33 35.507 45.258 36.775 47.7-13.14 48.63-32.183z" class="H"/><path d="M335.43 33.78s-10 5.3-3.1 15l3.1-15z" class="G"/><path d="M310.56 45.06c.93-19 22.7-33.45 48.63-32.18s46.2 17.73 45.26 36.77" class="B C D"/><path d="M335.43 33.78a22.6 22.6 0 0 1 13-9.12c7.3-1.95 18.8 2.05 25.9 7.8s9.5 19.5 7.25 29.87-7.75 13-7.75 13l-38.4-41.55z" class="G"/><path d="M374.57 62.58l.26-3.25c-5-1-5.26-10.75-5.26-10.75-12-.87-11.37-13-17.12-17.12-.23-.16-.45-.3-.7-.45a11.55 11.55 0 0 0-10.14-.69c-2.246.792-4.34 1.962-6.2 3.46-3 9.14-7.77 30.47 5.64 45.8l1.5 20s21.5-1 31.25-17.25v-10s6.75-2.25 8.5-7.87-7.25-2.63-7.75-1.88z" class="E"/><path d="M547.54 324.37l-28.55-60-43.33-36.57s-37.25 2.32-60.67 26.07-33.17 63.5-33.17 63.5l-4.75 19s11.67 13.1 39.84 11.17l10.2-26.17s16.1 27.67 25.12 57.4c9.65-1.84 64.88-13.7 95.3-54.4z" class="I"/><path d="M440.66 257.83S453 312 497.63 363.6" class="B C D"/><path d="M378.38 331.12l-1.3 5.2s11.67 13.1 39.84 11.17l2.47-6.34c-16.3-.64-31.06-5.67-41-10.04z" class="F"/><g fill="#fff"><path d="M435.3 351.13l-.83-7.86s18.43-6.86 24.95 4.84l-24.12 3.02z"/><path d="M483.42 346l-.84-7.87s-19.46-2.82-23.38 10l24.22-2.13z"/></g><path d="M485.12 346.58a29 29 0 0 0-25.69 1.53 29 29 0 0 0-25.93 2.55c-.75.48-1.187 1.325-1.146 2.215s.553 1.7 1.345 2.1 1.74.366 2.49-.115a24 24 0 0 1 22.16-1.86h.13a2.48 2.48 0 0 0 2.52 0 24 24 0 0 1 22.16-1.82c.39.166.817.23 1.24.2a2.5 2.5 0 0 0 .73-4.78l-.01-.01z" class="S"/><path d="M474.47 341.33c-2.1-1.26-4.65 7-8.5 8s-13.15 1.74-13.65 0 4.75-8.26 1.4-8-8.15 7-16.15 9.86-26.75 3-26.75 3l1-6.48c-22.67.14-33.14-9.7-34.6-11.17.163 1.88.758 3.698 1.74 5.3 0 0 6.06 24.76 24.6 30.45s39.55-1.45 39.55-1.45c10.05-.25 23.44-6.5 25.12-8.75 1.012-1.356 1.777-2.88 2.26-4.5a7.14 7.14 0 0 0 2.56-6.39c1.77-1.42 3.52-8.63 1.42-9.88z" class="E"/><path d="M464.015 275.227l17.47-10.04 5.885 10.24c2.762 4.805 1.105 10.94-3.7 13.7s-10.938 1.105-13.7-3.7l-5.885-10.24-.07.04z" class="F"/><path d="M359.9 130.05H380v11.77a10 10 0 1 1-20 0v-11.77h-.1zm-51-1.2H329v11.77a10 10 0 1 1-20 0v-11.77h-.1z" class="H"/><path d="M420.7 296.944l17.4-10.04 5.885 10.193c2.76 4.783 1.122 10.9-3.66 13.66s-10.898 1.122-13.66-3.66l-5.885-10.193-.07.04z" class="F"/><path fill="#fff1b6" d="M470.726 278.136l6.6 1.092-7.007 42.415-6.6-1.092z"/><path d="M473.132 277.68l2.1.34-6.878 42.56-2.1-.34zm4.535.736l2.1.34-6.878 42.56-2.1-.34z" class="S"/><path fill="#fff" d="M470.948 276.818l6.6 1.092-.217 1.312-6.6-1.092z"/><path d="M471.43 273.914l6.6 1.092-.48 2.91-6.6-1.092z" class="K"/><path d="M465.18 332.45l5.13-10.8-6.53-1.08 1.4 11.87z" class="E"/><path d="M467.36 327.87l-2.78-.46.6 5.04 2.18-4.58z" class="S"/><path d="M404.25 201.26s-11.6-2.76-10.25-20.43 21-23.57 37-18.45 18 15.12 23 16.8 30.33 27.33 6 50.5l-55.75-28.4z" class="G"/><path d="M375.32 234.83h-117l-36.9 223.26a405.12 405.12 0 0 0 52.35 6.4c44 2.76 100.37-29.82 137.53-55.55l-35.98-174.1z" class="R"/><path d="M246 262.5h45.33v16.67H246z" class="O"/><path d="M321.82 347.5h45.33v16.67h-45.33z" class="N"/><path opacity=".46" fill="#fff" d="M276.16 307.83h45.33v16.67h-45.33z"/><path d="M348.66 270.83H394v16.67h-45.33z" class="L"/><path opacity=".44" d="M291.32 375.5h45.33v16.67h-45.33z" class="O"/><path opacity=".46" fill="#fff" d="M348.66 375.5H394v16.67h-45.33z"/><g fill="#f7dd6f"><path d="M369.78 156.13l-56.54 66.7-.34-.4-56.2-66.3 25.07-24.68h63l25.02 24.68z"/><path d="M369.78 156.13l-56.54 66.7v-91.4h31.48l25.06 24.68z"/></g><path d="M332.18 156.07H294.3l18.94-24.62 18.94 24.62z" fill="#9cfdff"/><path d="M344.72 131.45l-12.82 24.62h37.88l-25.06-24.62zm-62.82.27l12.8 24.62-38-.27 25.2-24.35z" fill="#f7d056"/><g fill="#f7c23c"><path d="M331.9 156.07l-18.66 66.77-.34-1.2-18.33-65.56h37.33z"/><path d="M332.18 156.07h-.28l-18.66 66.77v-91.4l18.94 24.62z"/></g><path d="M332.18 156.07h-18.94v-24.62l18.94 24.62z" class="T"/><g fill="#f9aa0d"><path d="M256.7 156.07h37.88l18.67 66.77-56.55-66.77z"/><path d="M369.78 156.07H331.9l-18.66 66.77 56.54-66.77z"/></g><path d="M313.24 131.45l-18.94 24.62h18.94v-24.62z" class="T"/><path d="M257.05 130.8l3.06-5.6 3.07 5.6 5.6 3.07-5.6 3.06-3.07 5.6-3.06-5.6-5.6-3.06 5.6-3.07zm96.75 69.63l3.06-5.6 3.06 5.6 5.6 3.06-5.6 3.06-3.06 5.6-3.06-5.6-5.6-3.06 5.6-3.06z" fill="#f7d056"/><path d="M258.3 224.5h117.04v10.33H258.3z" class="N"/><path d="M407 190.8s-5.33 12-2.67 28.7 10.67 22.33 21 23l15.34 15.33L460 229.67l-5-2.84s8.67-3.66 7.33-12-12.66-7-16-4.33-6 9-6 9c-1.516-5.42-1.968-11.08-1.33-16.67 0 0-14 6.24-32-12.04z" class="E"/><path d="M404.1 218l.2 1.48a45.7 45.7 0 0 0 2.05 8.26 5.19 5.19 0 0 0-2.26-9.74z" class="K"/><path d="M407 190.8s-5.33 12-2.67 28.7 10.67 22.33 21 23" class="B C D"/><path d="M425.32 242.5s12.17-3.17 16.34-12.83c0 0 6 12.66-6 23.16l-10.34-10.33z" class="P"/><path d="M440.66 257.83l21.8 2.67s11.2-11.67-2.47-30.83l-19.33 28.16z" class="F"/><path d="M428.27 205.77a7.09 7.09 0 0 0-5.9 1.33m-10.53 0a7.11 7.11 0 0 0-4.74-3.77M339.23 39.36a7.09 7.09 0 0 0-6.05-.25m20.66.25a7.09 7.09 0 0 0-6-.25m79.7 171.47a5.4 5.4 0 0 0-4.49 1m-7.66.02l-2.34 10.5 3.84-.33" class="B C D"/><path d="M408.3 211.6c.652 0 1.18-.842 1.18-1.88s-.528-1.88-1.18-1.88-1.18.842-1.18 1.88.528 1.88 1.18 1.88z" class="G"/><path d="M433.02 227.3a5.22 5.22 0 1 0 0-10.44 5.22 5.22 0 0 0 0 10.44zM360.7 62.17a5.22 5.22 0 1 0 0-10.44 5.22 5.22 0 1 0 0 10.44zm-28.56-10.3a48.47 48.47 0 0 0 .65 10 5.2 5.2 0 0 0-.65-10z" class="K"/><path d="M440.66 257.83l-8.53 6.5s-7.9-7.76-3.86-18.88l12.4 12.38z" class="F"/><path d="M504.66 279.17l17.66 12.66s18-10.33 19.67-26c0 0-18.48-32.4-66.33-38.07 0 0 1.66 24.07 29 51.4z" class="I"/><path d="M541.67 267.87c-2.9 14.52-19.35 24-19.35 24l-24.16-1.33s-24.84-4.67-29.34-3-12.66 7-13.33 11.83.33 7.5 4 8.17c0 0 .24 4 7.3 3.83 0 0-1 2.84 3.6 3.67s6.43-3.67 6.43-3.67 8.67 5.17 16-2.5c0 0 24.17 13.17 46.84 4s16.02-31.8 2-45z" class="E"/><path d="M522.32 291.83s11-.4 16.6 3.84M459.5 307.5s2.12-6.8 7.3-9.3m-.02 13.13s1.8-6.5 6.3-7.87m3.74 7.87s1.17-2.83 3.84-2.58" class="B C D"/><path d="M542 265.83c-1.197-1.954-2.533-3.82-4-5.58-2.24 5.54-8.78 19.35-21.12 27.68l5.44 3.9s18-10.33 19.68-26z" class="F"/><g class="C D"><path d="M481.45 246.78s23.2 35 40.87 45m-35.92-37.9a10 10 0 0 1-7.66-3m-51.62 70.46l-15.28-25.66m4.56-66a9.57 9.57 0 0 0 8.5-4.67" class="B"/><use xlink:href="#B"/><use xlink:href="#B" x="8.31" y="22.57"/><use xlink:href="#B" x="28.13" y="59.97"/><use xlink:href="#B" x="49.01" y="84.41"/><path d="M410.82 354.17l-6.33.66m68.58-3.63s-5.94 5-16.6 5.64m14.03.74c-2.773 1.98-5.98 3.265-9.35 3.75" class="B"/></g><path d="M341.07 79.58s13.75 1.42 22.75-7.25a60.18 60.18 0 0 1-21.25 27.25l-1.5-20z" class="P"/><g class="G"><use xlink:href="#C"/><use xlink:href="#C" x="13.4" y="-0.74"/></g><path d="M342.32 47.58l-2.37 9.38 4.75 1M341.07 64s7.38.77 11.38-4.63m1-57.37a18.2 18.2 0 0 0-15.25 13.43M359.24 2s10.27 1.94 15.6 13.64" class="B C D"/><path d="M342.57 99.58l-12 6.88s-5.5-5.63-3.5-12.25S341.33 83 341.33 83l1.24 16.58z" class="H"/><path d="M393.36 177.53s-3.33-13.23-6.25-15.15-4.74 6-3.64 9l9.9 6.15z" class="K"/><g class="C D"><path d="M346.24 109.58a2 2 0 1 0 0-4 2 2 0 1 0 0 4zm-4 104.57a2 2 0 1 0 0-4 2 2 0 1 0 0 4z"/><g class="B"><path d="M393.36 127.17c4.52 12.164 8.115 24.653 10.75 37.36"/><path d="M395.5 133.1l-5.5-2.6"/></g></g><g class="I"><path d="M250.2 82.8s-11.93 10.3-11.92 9.58-5.1-14.07 2.15-22.37l9.77 12.8z"/><path d="M250.2 82.8s12.87 9.92 12.88 9.22 4.28-13.64-2.7-22.17L250.2 82.8z"/></g><path d="M257.16 79.1l-7 3.7-6.85-3.92a5.94 5.94 0 0 1-3-5.24l.3-18.14 19.94.32-.23 18.2a5.94 5.94 0 0 1-3.16 5.09z" class="E"/><path d="M251 55.64l-4.24 1.43-6.17 4.27-.08 4.75c2.58 3.58 8.28 8.58 19.83 7.86l.3-18.15-9.63-.16z" class="P"/><g class="E"><path d="M231.85 35.1s10.52 1.63 16.14-6.66 16.86-2.65 19.3 6.77.35 28.18-12.6 31.85-26.37-9.3-22.83-31.96z"/><path d="M230.63 52.54a5.22 5.22 0 1 0 0-10.44 5.22 5.22 0 1 0 0 10.44zm36.5.6a5.22 5.22 0 1 0 0-10.44 5.22 5.22 0 0 0 0 10.44z"/></g><g stroke="#fff"><path d="M240.34 51.86a7.08 7.08 0 0 0 0-14.16 7.08 7.08 0 0 0 0 14.16zm18.9.3a7.08 7.08 0 1 0 0-14.16 7.08 7.08 0 1 0 0 14.16z"/><path d="M247.43 44.9a3.68 3.68 0 0 1 4.72.08"/></g><path d="M242.68 44.813c.014-.867-.386-1.577-.894-1.585s-.932.688-.946 1.555.386 1.577.894 1.585.93-.688.946-1.555zm16.134.205c.015-.867-.386-1.577-.894-1.585s-.93.688-.945 1.555.386 1.577.894 1.585.93-.688.945-1.555z" class="G"/><path d="M249 49.4l-2.25 7.68 3.88.06" class="B C D"/><path d="M235.72 58.45a3.05 3.05 0 1 0 0-6.1 3.05 3.05 0 1 0 0 6.1zm27.4.45a3.05 3.05 0 1 0 0-6.1 3.05 3.05 0 1 0 0 6.1z" class="K"/><path d="M251.46 59.78a6 6 0 0 0 5.77-1.2" class="B C D"/><g class="M"><path d="M231.07 95.63a9.67 9.67 0 0 1-16.494 6.892c-2.773-2.763-3.608-6.925-2.114-10.543A9.67 9.67 0 0 1 221.4 86a9.6 9.6 0 0 1 9.67 9.63z" stroke="#fff" stroke-width="3"/><path d="M229.6 100.75l10.8 5.33-10.8-5.33z"/></g><path d="M229.6 100.75l10.8 5.33" stroke="#fff" stroke-width="3"/><path d="M204.32 150.66H212s16.84-32.66 18.6-41.08 2-10.66 6-11.58 5 .83 5 .83 3.7.34 5.3 1.67a2.78 2.78 0 0 1 1.26 2.67 3.58 3.58 0 0 1 2.73 2.41 6.59 6.59 0 0 1-1.55 6.25 1.48 1.48 0 0 1-2.44-.33 8.12 8.12 0 0 1-1 6.33c-2 2.84-12.18 57.5-28 58.33s-18-25.5-18-25.5h4.42z" class="E"/><g class="C D"><path d="M213.2 148.3l-3.87 7.52m32.24-57s-3.66.92-5 3.84m11.57.5s-4-.17-4.73 2.9m6.24-23.1v14.98" class="B"/><path d="M247.35 90a.74.74 0 1 0 0-1.48.74.74 0 1 0 0 1.48zm0 5a.74.74 0 1 0 0-1.48.74.74 0 1 0 0 1.48z"/><path d="M286.87 118.5V90.47m0-8.57v-8.07m-40 37.67c-.397-1.304-.397-2.696 0-4" class="B"/></g><path d="M183 109.15s11.07 21.85 11.7 44.25-20 26.77-27.38 25.93v7.17l-36-2.92s6.67-4 7.67-19.05c0 0-11.33-2.57-11.67-11.13s9.67-9 13-7.3 8.67 9.2 10.34 7.3 1.33-7.72-1-13.64.66-15.6 5.33-18.6 26-.04 28-12.02z" fill="#f77e6d"/><path d="M167.32 179.33s-13.75-2.14-21.37-11.25c0 0-.75 15 21.37 18.42v-7.17zM161 160.2a5.22 5.22 0 1 0 0-10.44 5.22 5.22 0 1 0 0 10.44zm31.64-23a5.22 5.22 0 0 0 .92 10.35 4.72 4.72 0 0 0 .74-.08 98.47 98.47 0 0 0-1.66-10.27z" class="P"/><path d="M166.794 141.88c.747-.24.955-1.678.464-3.214s-1.494-2.588-2.24-2.35-.955 1.677-.464 3.213 1.493 2.588 2.24 2.35zm18.896-7.417c.747-.24.955-1.677.464-3.214s-1.494-2.588-2.24-2.35-.955 1.677-.464 3.213 1.494 2.6 2.24 2.35z" class="G"/><path d="M177.16 138l12 12.65-7.67 2.74m61.4-112.24a3.51 3.51 0 0 0-3-.13m20.35.52a3.49 3.49 0 0 0-3-.12m-91.35 89.76a8.09 8.09 0 0 0-6.23 3m25.13-10.58a8.13 8.13 0 0 0-6.23 3m-8.9 35.4a15.62 15.62 0 0 0 14.34-1.39" class="B C D"/><path d="M199.83 391.83h-.5c-47.7-2.88-71.6-39.77-72.58-41.34-2.37-3.73-1.266-8.676 2.465-11.045s8.676-1.266 11.045 2.465c.82 1.3 20.7 31.57 60 34 4.418.13 7.895 3.817 7.765 8.235s-3.817 7.895-8.235 7.765l.03-.08z" class="F"/><path d="M178.58 311.53s40.82 4.66 58-22.2c0 0-5.3-63.13-42.27-78.32-.01-.02-33.14 18.88-15.73 100.5z" class="M"/><path d="M218.8 304.9c7.243-3.447 13.393-8.828 17.77-15.55 0 0-5.3-63.13-42.27-78.32" class="B C D"/><path d="M115.8 244.53l.24-.43c24.86-40.8 68.63-44.67 70.5-44.8 4.418-.348 8.282 2.952 8.63 7.37s-2.952 8.282-7.37 8.63c-1.52.12-37.6 3.53-58.08 37.2a8 8 0 0 1-10.827 2.868c-3.788-2.152-5.158-6.938-3.083-10.768v-.05z" class="F"/><path d="M66.07 200.08s15.25-12.33 41.5-8.66 43.7 19 48.22 33.08-14 50.33-12.47 67.33 17 53.5.5 80.5-69 27.84-93.5 3.17S2.7 241.2 66.07 200.08z" class="I"/><path d="M135.9 231c.38 16.27-14.53 47.25-13.18 62.58 1.5 17 17 53.5.5 80.5-6.23 10.2-17.6 16.67-30.66 19.43" stroke-dasharray="5" class="B C D"/><path d="M384.42 324.58c-15-5.17-1.12 63.26 7.9 96.94 10.53-6.66 20.17-13.3 28.47-19.3-7.8-27.17-22.7-72.95-36.37-77.65z" fill="#a5b8f9"/><path d="M411.1 409.5a.49.49 0 0 1-.48-.37c-11.54-43.3-24.94-69.48-25.07-69.74a.5.5 0 0 1 .21-.67.51.51 0 0 1 .68.21c.13.26 13.58 26.54 25.15 69.95.033.13.014.265-.053.38s-.178.197-.307.23l-.13.01z" class="J"/><path d="M359.2 349.36c-13.42-1.84 7.23 49.5 21.37 79.35a483.65 483.65 0 0 0 25-15.88c-11.57-22.77-33.23-61.67-46.37-63.47z" class="L"/><path d="M396.3 419.48a.5.5 0 0 1-.45-.28c-17.84-36.4-34.32-57.3-34.48-57.5-.084-.103-.124-.235-.11-.367s.084-.252.19-.333a.49.49 0 0 1 .7.08c.17.2 16.7 21.17 34.6 57.68a.5.5 0 0 1-.23.67.54.54 0 0 1-.22.05z" class="J"/><path d="M228.1 313.1c-24.15 17.16-25.25 74.74-46.46 120.32-2 4.25-4 8.15-5.92 11.75a250.89 250.89 0 0 0 25.43 8.25c41.6-38.95 63.53-77.7 67.66-104.55 5.48-35.56-16.57-52.94-40.7-35.77z" class="L"/><path d="M193.66 381.66c-4.4-20.34-19.92-25.17-29.4-10.9-8.94 13.46.62 42.08.05 69.63 5.547 2.5 11.153 4.757 16.82 6.77 12.47-27.52 15.68-51.02 12.54-65.5z" class="N"/><path d="M238.75 388.4c-15.57 7.17-22.38 39.8-39.34 63.43l-.68.93c6.9 1.92 13.83 3.55 20.75 4.94 21.18-15.54 34.08-31.85 38.58-44.58 6.94-19.63-3.74-31.88-19.3-24.72z" class="O"/><path d="M191.32 451.5a.6.6 0 0 1-.22-.05.5.5 0 0 1-.23-.67c25.7-52.2 51.8-122.3 52.07-123a.5.5 0 1 1 .93.35c-.26.7-26.4 70.86-52.1 123.1a.5.5 0 0 1-.45.27zm-20-7.6h-.18a.5.5 0 0 1-.29-.65c8.85-23.05 6.28-64.05 6.25-64.46-.008-.133.037-.263.125-.363a.5.5 0 0 1 .345-.167.51.51 0 0 1 .53.47c0 .4 2.62 41.62-6.32 64.88a.48.48 0 0 1-.46.29zm37.8 12.04a.5.5 0 0 1-.41-.78l36.86-54.1a.5.5 0 0 1 .82.56l-36.86 54.1a.49.49 0 0 1-.41.22z" class="J"/><path d="M248.46 219.65l6 5.35v31.27" class="B C D"/><path d="M249.54 299.26c11.42 0 20.68-9.26 20.68-20.68s-9.26-20.68-20.68-20.68-20.68 9.26-20.68 20.68 9.26 20.68 20.68 20.68z" class="U"/><path d="M249.54 284.85a6.27 6.27 0 1 0 0-12.54 6.27 6.27 0 1 0 0 12.54z" class="Q"/><path d="M350.2 455.35c6.318 0 11.44-5.122 11.44-11.44s-5.122-11.44-11.44-11.44-11.44 5.122-11.44 11.44 5.122 11.44 11.44 11.44z" class="T"/><path d="M350.2 447.38a3.47 3.47 0 1 0 0-6.94 3.47 3.47 0 0 0 0 6.94z" class="Q"/><path d="M482.57 91.62c11.45 0 20.73-9.28 20.73-20.73s-9.28-20.73-20.73-20.73-20.73 9.28-20.73 20.73 9.28 20.73 20.73 20.73z" class="U"/><path d="M482.57 77.18a6.29 6.29 0 1 0 0-12.58 6.29 6.29 0 0 0 0 12.58z" class="Q"/><path d="M12.72 207.86c7.025 0 12.72-5.695 12.72-12.72s-5.695-12.72-12.72-12.72S0 188.115 0 195.14s5.695 12.72 12.72 12.72z" class="U"/><path d="M12.72 199a3.86 3.86 0 1 0 0-7.72 3.86 3.86 0 0 0 0 7.72z" class="Q"/><path d="M181.47 200c-1.56-7.8-7.95-13.48-7.95-13.48l-51.12-3.9-7.54 6.58c21.705 2.258 43.23 6.007 64.42 11.22.78-.18 1.5-.32 2.2-.4z" class="M"/><g class="C D"><path d="M155 216.86s-19.07 10.54-27.7 24.4-12.3 33.58-36.67 39.58-58.58.7-65.2-19.4" class="B"/><path d="M59.5 276.48a4.17 4.17 0 1 0 0-8.34 4.17 4.17 0 1 0 0 8.34z"/></g><path d="M63.62 380.52c17.89 0 32.4-14.502 32.4-32.4s-14.502-32.4-32.4-32.4-32.4 14.5-32.4 32.4 14.5 32.4 32.4 32.4z" class="F"/><g class="C D"><path d="M31.23 348.13s28.47 13.8 64.78 0" class="B"/><path d="M59.5 348.46a4.17 4.17 0 1 0 0-8.34 4.17 4.17 0 0 0 0 8.34z"/><path d="M356.45 1.83V12.8" class="B"/></g><defs ><path id="B" d="M448.17 266.77a1.84 1.84 0 1 0 0-3.68 1.84 1.84 0 1 0 0 3.68z"/><path id="C" d="M336.8 48.34c.762 0 1.38-1.066 1.38-2.38s-.618-2.38-1.38-2.38-1.38 1.066-1.38 2.38.618 2.38 1.38 2.38z"/></defs></svg>