<svg xmlns="http://www.w3.org/2000/svg" width="80" height="80" fill="none"><path d="M40 80c22.09 0 40-17.91 40-40S62.09 0 40 0 0 17.91 0 40s17.91 40 40 40z" fill="#118dea"/><g fill="#fff"><path d="M38.297 48.203a.74.74 0 0 1-.547-.234l-5.437-5.437c-.302-.302-.302-.792 0-1.094s.792-.302 1.094 0l5.438 5.438a.75.75 0 0 1 0 1.094.73.73 0 0 1-.547.234zm-5.6-11.047a.74.74 0 0 1-.5-.28.75.75 0 0 1 0-1.094l5.9-5.875c.302-.302.792-.302 1.094 0s.302.792 0 1.094l-5.937 5.875c-.132.17-.332.272-.547.28z"/><path fill-rule="evenodd" d="M29.844 55.625h20.312c1.294 0 2.344-1.05 2.344-2.344s-1.05-2.344-2.344-2.344H29.844c-1.295 0-2.344 1.05-2.344 2.344s1.05 2.344 2.344 2.344zm-.78-2.344a.78.78 0 0 1 .781-.781h20.312a.78.78 0 1 1 0 1.563H29.844a.78.78 0 0 1-.781-.781z"/><path d="M40.72 33.422c-.207.002-.406-.083-.547-.234l-2.28-2.28a3.89 3.89 0 0 1 0-5.516c1.54-1.478 3.974-1.478 5.516 0l2.28 2.28c.302.302.302.792 0 1.094s-.792.302-1.094 0l-2.28-2.28c-.94-.868-2.388-.868-3.328 0-.907.924-.907 2.404 0 3.328l2.28 2.28a.75.75 0 0 1 0 1.094c-.14.152-.34.237-.547.234z"/><path d="M42.844 40.28a.76.76 0 0 0 .547.234.73.73 0 0 0 .547-.22l8.844-8.828a.78.78 0 0 0 0-1.109l-1.062-1.062a7.03 7.03 0 0 0-9.937 0c-2.73 2.743-2.73 7.178 0 9.922l1.063 1.063zm-1.18-8.105a5.47 5.47 0 0 1 5.102-3.379 5.45 5.45 0 0 1 3.86 1.64l.5.5-7.734 7.734-.5-.5a5.47 5.47 0 0 1-1.227-5.995zM27.5 39.22a3.91 3.91 0 0 0 3.906 3.906 3.91 3.91 0 0 0 3.906-3.906 3.91 3.91 0 0 0-3.906-3.906c-2.156 0-3.906 1.746-3.906 3.906zm1.563 0c0-1.294 1.05-2.344 2.344-2.344s2.344 1.05 2.344 2.344-1.05 2.344-2.344 2.344-2.344-1.05-2.344-2.344z" fill-rule="evenodd"/><path d="M43.906 51.72a.78.78 0 0 1-.781-.781c0-1.726-1.4-3.125-3.125-3.125s-3.125 1.4-3.125 3.125a.78.78 0 1 1-1.562 0A4.69 4.69 0 0 1 40 46.25a4.69 4.69 0 0 1 4.688 4.688.78.78 0 0 1-.781.781z"/></g></svg>