<svg xmlns="http://www.w3.org/2000/svg" width="80" height="80" fill="none"><path d="M40 80c22.09 0 40-17.91 40-40S62.09 0 40 0 0 17.91 0 40s17.91 40 40 40z" fill="#0f1c2a"/><g fill="#fff"><path d="M28.36 35.125a.75.75 0 0 1-.312 0l-1.22-.516c-.193-.076-.346-.227-.426-.418s-.078-.407.004-.597a.78.78 0 0 1 1.094-.484l1.22.516c.432.082.715.498.633.93s-.498.715-.93.633l-.062-.062zm24.515 10.25a.75.75 0 0 1-.312 0l-1.22-.5a.79.79 0 0 1-.422-1.031.79.79 0 0 1 1.031-.422l1.22.516a.79.79 0 0 1 .602.52c.092.27.037.566-.148.78s-.472.315-.75.262v-.125zm-8-17.03a.75.75 0 0 1-.312 0c-.2-.08-.34-.23-.417-.422s-.073-.405.01-.593l.53-1.297a.78.78 0 0 1 1.012-.387.78.78 0 0 1 .426.996l-.516 1.234a.78.78 0 0 1-.734.469zm-9.672-.032a.8.8 0 0 1-.72-.484l-.5-1.234a.78.78 0 0 1 .422-1.016.81.81 0 0 1 1.03.422l.5 1.234a.78.78 0 0 1-.437 1.016.64.64 0 0 1-.297.063zm-8.11 16.968a.78.78 0 0 1-.726-1.083.78.78 0 0 1 .429-.417l1.22-.5c.4-.163.86.024 1.03.422a.78.78 0 0 1-.437 1.016l-1.22.516c-.096.03-.196.047-.297.047zm24.593-10.077a.81.81 0 0 1-.734-.484.78.78 0 0 1 .438-1.016l1.22-.5a.78.78 0 0 1 1.137.818.78.78 0 0 1-.543.62l-1.22.5a.72.72 0 0 1-.297.063z"/><g fill-rule="evenodd"><path d="M35 50.47c0 1.985 1.6 3.594 3.594 3.594h2.813c1.96.018 3.574-1.54 3.625-3.5V49a4 4 0 0 1 1.219-2.953 9.22 9.22 0 1 0-15.39-8.297 9.22 9.22 0 0 0 2.578 7.969 4.99 4.99 0 0 1 1.563 3.516v1.234zm4.063-18.875H40a7.58 7.58 0 0 1 5.172 1.844c1.606 1.452 2.522 3.515 2.522 5.68s-.916 4.228-2.522 5.68a5.5 5.5 0 0 0-1.734 4.109v1.563a2.03 2.03 0 0 1-2.031 2.031h-2.812a2.03 2.03 0 0 1-2.031-1.891v-1.234a6.53 6.53 0 0 0-1.984-4.687c-1.774-1.752-2.58-4.26-2.156-6.72a7.72 7.72 0 0 1 6.641-6.375zm.157 10.75a.78.78 0 0 0 .781.781h1.563c1.294 0 2.344-1.05 2.344-2.344s-1.05-2.344-2.344-2.344-2.344 1.05-2.344 2.344v1.563zm2.344-.78h-.78v-.78a.782.782 0 1 1 1.563 0 .78.78 0 0 1-.781.781z"/><path d="M36.094 37.656c0 1.294 1.05 2.344 2.344 2.344H40a.78.78 0 0 0 .781-.781v-1.563c0-1.294-1.05-2.344-2.344-2.344s-2.344 1.05-2.344 2.344zm1.562 0a.78.78 0 1 1 1.563 0v.78h-.78a.78.78 0 0 1-.781-.781z"/></g><path d="M40 49.375a.78.78 0 0 1-.781-.781V37.656a.78.78 0 1 1 1.562 0v10.938a.78.78 0 0 1-.781.781z"/><path d="M43.906 49.375h-7.812a.781.781 0 1 1 0-1.562h7.812a.781.781 0 1 1 0 1.563zM23.594 27.5a.78.78 0 0 1-.781-.781v-3.125a.78.78 0 0 1 .781-.781h3.125a.782.782 0 1 1 0 1.563h-2.344v2.344a.78.78 0 0 1-.781.781zm32.812 0a.78.78 0 0 1-.781-.781v-2.344H53.28a.781.781 0 1 1 0-1.562h3.125a.78.78 0 0 1 .781.781v3.125a.78.78 0 0 1-.781.781zm0 29.688H53.28a.781.781 0 1 1 0-1.562h2.344V53.28a.781.781 0 1 1 1.563 0v3.125a.78.78 0 0 1-.781.781zm-29.686 0h-3.125a.78.78 0 0 1-.781-.781V53.28a.781.781 0 1 1 1.563 0v2.344h2.344a.781.781 0 1 1 0 1.563z"/></g></svg>