<svg xmlns="http://www.w3.org/2000/svg" width="80" height="80" fill="none"><path d="M40 80c22.09 0 40-17.91 40-40S62.09 0 40 0 0 17.91 0 40s17.91 40 40 40z" fill="#fdcb6e"/><g fill="#fff"><path fill-rule="evenodd" d="M23.594 54.063h32.812a.78.78 0 0 0 .781-.781V25.156a.78.78 0 0 0-.781-.781H23.594a.78.78 0 0 0-.781.781V53.28a.78.78 0 0 0 .781.781zm32.03-1.562h-31.25V25.938h31.25V52.5z"/><path d="M26.72 29.063a.781.781 0 1 0 0-1.562.781.781 0 1 0 0 1.563zm3.124 0a.781.781 0 1 0 0-1.562.781.781 0 1 0 0 1.563zm3.126 0a.781.781 0 1 0 0-1.562.781.781 0 1 0 0 1.563zm2.342 16.265a.72.72 0 0 1-.547-.219l-2.22-2.22a.78.78 0 0 1 0-1.094l2.22-2.22a.78.78 0 0 1 1.325.555.78.78 0 0 1-.231.555l-1.656 1.656L35.86 44a.78.78 0 0 1 0 1.109.72.72 0 0 1-.547.219zm9.235.142A.78.78 0 0 1 44 44.141l1.797-1.797L44 40.547a.78.78 0 0 1 .555-1.325.78.78 0 0 1 .555.231l2.344 2.344a.78.78 0 0 1 0 1.094L45.1 45.235a.79.79 0 0 1-.562.234zm-6.25 2.858a.58.58 0 0 1-.22 0 .78.78 0 0 1-.516-.969l3.125-10.422a.76.76 0 0 1 .376-.462c.183-.097.396-.116.593-.053a.78.78 0 0 1 .516.969l-3.125 10.422a.78.78 0 0 1-.75.516zm18.11-16.14H23.594a.781.781 0 1 1 0-1.562h32.812a.781.781 0 1 1 0 1.563z"/></g></svg>