<svg xmlns="http://www.w3.org/2000/svg" width="598" height="548" fill="none"><style><![CDATA[.B{stroke-linecap:round}.C{stroke-linejoin:round}.D{stroke:#171c26}.E{fill:#02cbff}.F{fill:#85a0f9}.G{fill:#171c26}.H{fill:#ffa08c}.I{fill:#3e64ff}.J{fill:#5edfff}.K{fill:#e97474}.L{fill:#1b49db}.M{fill:#f77e6d}.N{fill:#feeeb7}.O{fill:#fdad00}]]></style><g fill="#f7dd6f"><path d="M361.27 24.92l-56.54 66.7-.34-.4-56.2-66.3L273.25.25h63l25.02 24.67z"/><path d="M361.27 24.92l-56.54 66.7V.25h31.48l25.06 24.67z"/></g><path d="M323.67 24.87H285.8L304.73.25l18.94 24.62z" fill="#9cfdff"/><path d="M336.2.25l-12.8 24.62h37.88L336.2.25zm-62.8.27l12.8 24.62-38-.27L273.4.52z" fill="#f7d056"/><g fill="#f7c23c"><path d="M323.4 24.87l-18.66 66.76-.34-1.2-18.33-65.55h37.33z"/><path d="M323.67 24.87h-.28l-18.66 66.76V.25l18.94 24.62z"/></g><path d="M323.67 24.87h-18.94V.25l18.94 24.62z" fill="#fcf6de"/><path d="M248.18 24.87h37.88l18.67 66.76-56.55-66.76zm113.1 0H323.4l-18.66 66.76 56.54-66.76z" fill="#f9aa0d"/><path d="M304.73.25L285.8 24.87h18.94V.25z" fill="#fcf6de"/><path d="M218.54 7.6L221.6 2l3.06 5.6 5.6 3.06-5.6 3.06-3.06 5.6-3.06-5.6-5.6-3.06 5.6-3.06zM355.3 73.22l3.06-5.6 3.06 5.6 5.6 3.07-5.6 3.06-3.06 5.6-3.06-5.6-5.6-3.06 5.6-3.07z" fill="#f7d056"/><path d="M470.37 249.3s-45.37-42.54-100.3-38.77-53.62 55.5-82.6 55.27-58.74-41-104.8-23-57 67.75-55.52 72.87 36.46 53.13 36.46 53.13 18.43 15.24 31.5 20.3 50.5 11.56 50.5 11.56-25.7 13.62 25.2-.57 28.46 2.1 59.63-13.6 139.9-137.2 139.9-137.2z" fill="#e4e9f9"/><path d="M82.27 336.5c.33-1.67 2.83-38.83 10.16-52.67l-1.5-10.5s-7 7.17-9.83 7-1.33-5 0-8.33 3.33-7 3.33-9-5.83-11.67-5.83-11.67-3.67 7.17-7.5 7.67-5.17-1.33-4.17-4.5 7.17-11.17 7.17-14.17-3.83-10-3.83-10-8 11.34-10.67 9.67-2-5.67-.67-7.83 6.34-9.17 6.34-11.84-5.34-9.83-5.34-9.83-6 7.83-9.16 6.83.83-7.66 3.83-10.83 0-11.67 0-11.67-7.5 6.84-9.17 4.67 1.17-8 5-10l-7.66-27.42s-14.77 10.5-16.25 26.5c0 0 6.25 9.75 4.75 12s-10-3-10-3a13.31 13.31 0 0 0-4.5 12.5s7.75 6.75 8 11-10.25-.5-10.25-.5-2.75 9.5 0 17.5c0 0 14.75 4.75 15.5 8s-14.25-.25-14.25-.25 1.25 15 4.75 17.5 16.25 0 17.25 3-11 5.5-11 5.5 3.75 9.5 6 12.25 12 .25 14 4-3.25 5.75-5.5 5.75-2.25 4 .5 7.5 16.25 9.25 19.5 17S68 339.58 68 339.58l14.27-3.08z" fill="#b5c4f9"/><path d="M75.52 336.83a.5.5 0 0 1-.5-.42c-7.76-48.08-17.34-68.87-25-85.58l-4.18-9.3c-8.2-19.13-7.8-42.72-7.8-43a.5.5 0 0 1 .5-.49.52.52 0 0 1 .49.51c0 .24-.4 23.62 7.7 42.55 1.3 3.05 2.7 6.07 4.17 9.27 7.7 16.8 17.3 37.63 25.08 85.88a.51.51 0 0 1-.41.58h-.07z" class="F"/><path d="M81.68 330.15c.73-1.23 13.1-30 22.77-38.9l1.75-8.74s-7.55 3.72-9.75 2.8.34-4.34 2.33-6.6 4.6-4.62 5.16-6.2-1.37-10.88-1.37-10.88-4.9 4.66-8.08 4-3.72-2.5-2-4.73 8.8-6.84 9.64-9.22-.24-9-.24-9-9.5 6.75-11.16 4.68 0-5 1.67-6.4 7.57-5.5 8.32-7.6-1.48-9.28-1.48-9.28-6.94 4.53-9.17 2.85 2.8-5.84 6.06-7.5 3.26-9.24 3.26-9.24-7.85 3.32-8.57 1.13 3.16-6 6.76-6.52l1.6-23.87s-14.63 4.2-20.28 16.46c0 0 2.22 9.47.4 10.83S72.16 203 72.16 203a11.21 11.21 0 0 0-7.06 8.65s4.26 7.5 3.27 10.95-8-3.26-8-3.26-4.84 6.76-4.9 13.87c0 0 10.36 7.88 10 10.67s-11.22-4.18-11.22-4.18-3.14 12.3-1.06 15.22 12.87 4.54 12.83 7.2-10.25 1.28-10.25 1.28.3 8.58 1.33 11.4 9.44 3.55 10 7.08-4.18 3.64-6 3-2.9 2.54-1.7 6.08 10.3 11.87 10.7 18.92-.6 18.72-.6 18.72l12.16 1.56z" fill="#a5b8f9"/><path d="M76.38 328.63h-.1a.5.5 0 0 1-.4-.58c7.28-40.25 5.5-59.4 4.08-74.8l-.72-8.53c-1.15-17.47 5.76-36.06 5.83-36.25a.5.5 0 0 1 .65-.29.49.49 0 0 1 .29.64c-.07.2-6.9 18.6-5.77 35.83.18 2.8.44 5.57.7 8.5 1.43 15.45 3.2 34.67-4.1 75.06a.49.49 0 0 1-.49.4z" class="F"/><path d="M33.55 324.4s9.05-21.2 58.7-32 61 29.55 84.48 29.27 46.14-50.55 92-48.65 51.27 16.2 76.08 14.6 70.2-92.2 170.3-54.46l18.06 124-72.68 85.42s4.86-20.28-81.56 74.8c-94.25 49.725-187.92.1-228.42-64.9 20-58.5-116.95-128.1-116.95-128.1z" fill="#d4ddf9"/><path d="M533.2 357.12l-5.58-19.6s-8.12-.1-7.34-3.57 5.83-4.77 5.83-4.77l-1.58-12.9s-12.78 3.22-11.52-1.5 11.08-5.06 11.08-5.06l1.37-18.05s-13.2 1.53-11.27-3.42 16.3-2.76 18-12.95 1.54-11.84 1.54-11.84-11.5 3.38-10.56-1.38 10.67-4.47 12.78-10.7.77-15.85.77-15.85-8.52 3-12.26 1.66-2.08-7.76-.63-8.87 10.82-.06 12.77-4.68.2-14.95-1.36-17.92c0 0-4.67 4.6-7.75 3.22s-.7-7.08.83-8.84 5-4.55 5.62-6.9-2.56-11.56-4.15-13.07c0 0-2.74 3.54-6.72 2.86s1.15-6.36 1.4-10.72-8.27-12.63-10.35-14.2c0 0-3.4 4.76-6.2 5.05s-1.65-9.82-3.3-12.15-10.52-5.44-17.26-6.15-10.17.62-10.17.62 15.57 24.16 17.78 40.9 4.4 31.87-1.7 65.35-3.6 74.17 24.46 108.64l15.46-3.2z" fill="#b5c4f9"/><path d="M524.24 359.46a.5.5 0 0 1-.37-.16c-28.66-31.68-23.15-86.08-19.13-125.8 1.44-14.26 2.7-26.57 1.8-34.2-3.22-27.73-21.06-48.74-21.24-48.95a.49.49 0 0 1-.123-.361c.01-.13.072-.254.173-.34a.51.51 0 0 1 .71.05c.18.2 18.22 21.46 21.47 49.48.9 7.74-.36 20.1-1.8 34.42-4 39.54-9.48 93.7 18.9 125a.5.5 0 0 1-.38.83v.04z" class="F"/><path d="M517.94 364.06c1.23-.9 25.42-23.66 38.6-28.25l5.4-7.77s-8.93.43-10.68-1.4 2.17-4.08 5.06-5.45 6.43-2.55 7.64-3.86 3.27-11.16 3.27-11.16-6.75 2.46-9.56.46-2.56-4 0-5.47 11.46-2.95 13.28-4.9 3.57-8.86 3.57-8.86-12.1 2.55-12.84-.16 2.13-4.92 4.32-5.52 9.7-2.15 11.32-3.9 2.48-9.67 2.48-9.67-8.68 1.48-10.14-1.1 5.2-4.5 9.08-4.76 7.08-7.62 7.08-7.62-9.05-.1-8.82-2.52 5.62-4.52 9.34-3.5L598 226.1s-16-2.1-26.7 7.46c0 0-1.83 10.17-4.18 10.73s-4.7-8-4.7-8a11.85 11.85 0 0 0-10.53 5.43s1 9.12-1.45 12.05-6.4-6.55-6.4-6.55-7.56 4.54-10.62 11.44c0 0 6.76 12.05 5.27 14.63s-9.16-8.8-9.16-8.8-8.3 10.52-7.53 14.3 10.62 9.86 9.45 12.43-10.53-3.08-10.53-3.08-3.3 8.48-3.5 11.64 7.7 7.45 6.72 11.12-5.6 1.78-7.08.42-3.9 1.24-4.23 5.2 5 15.9 2.43 22.94-8.48 18-8.48 18l11.17 6.62z" fill="#a5b8f9"/><path d="M513.63 360.35a.48.48 0 0 1-.28-.08.5.5 0 0 1-.14-.69c24.1-36.13 30.46-55.53 35.58-71.1l2.9-8.62c6.25-17.5 20.84-32.67 21-32.82a.5.5 0 0 1 .867.202.5.5 0 0 1-.157.498c-.14.15-14.58 15.18-20.76 32.46-1 2.8-1.92 5.6-2.9 8.6-5.14 15.64-11.52 35.1-35.7 71.35a.5.5 0 0 1-.43.22z" class="F"/><path d="M487.6 361.15L484.47 344s6.2-3.15 4.3-5.52-6.28-1.46-6.28-1.46l-3.68-10.5s11-2.37 8.27-5.52-10.42.3-10.42.3l-7.9-13.3s10.73-3.84 7.36-6.9-13.56 4.06-18.7-3.14-5.67-8.5-5.67-8.5 10.1-1.76 7.58-5.06-9.88.62-13.87-3.37-6.6-11.88-6.6-11.88 7.66-1 10-3.37-1.34-6.74-2.88-7.05-8.32 4.06-11.58 1.24-5.82-11.4-5.74-14.27c0 0 5.33 1.76 7.17-.46s-2.15-5.7-4-6.47-5.56-1.6-6.94-3.18-2.4-9.85-1.76-11.6c0 0 3.45 1.68 6.25-.35s-3.3-4.44-5.14-7.7 1.57-12.84 2.57-14.83c0 0 4.4 2.37 6.66 1.53s-2.45-8.16-2.07-10.58 6-8.16 10.92-11.26 8.05-3.38 8.05-3.38-2.8 24.45 1.84 38.13 8.7 26.15 26.07 49.55 30.87 55.58 22.4 92.68l-13.06 3.4z" fill="#c4d1f9"/><path d="M495.2 359.67h-.14c-.127-.037-.235-.123-.298-.24a.5.5 0 0 1-.042-.38c9.9-34.8-14.83-74.27-32.88-103.1-6.54-10.45-12.2-19.47-14.44-25.76-8.13-22.77-2.33-45.95-2.27-46.18a.51.51 0 0 1 .61-.36c.13.033.24.116.307.23s.086.25.053.38c-.06.23-5.8 23.12 2.24 45.6 2.2 6.2 7.84 15.17 14.35 25.57 18.15 29 43 68.7 33 103.9a.49.49 0 0 1-.49.34z" class="F"/><path d="M302.56 290.42s11.5-26 37.25-22.94 31.75 19.1 32.75 29.43 1.34 17.17 8.17 24.75 10.17 12.37 9.83 26.65-10.33 20.77-6.33 27.35 17.67 17.25 8.5 33.25l-137.17 20.57s-9.66-20.83-6.66-44.86 24-33.37 25-43-8-31.36 28.66-51.2z" class="G"/><g class="L"><path d="M379.23 394.2c-23-22.22-62-15.3-68.75-13.45s-16 6.48-16 6.48L276.23 530.9l4.74 5.3a199.5 199.5 0 0 0 6.26.7c35.2 3.37 71.74-5.67 105-22.34l-.95-48.16 20-5.66c-6.05-32.67-9.05-44.34-32.05-66.55z"/><path d="M310.48 416.47s16 24.2 1.75 72.2l-12.12 6.25-7.38-11 5.25-17.5 12.5-49.94z"/></g><path d="M379.23 394.2c-4.144-3.97-8.932-7.2-14.16-9.58 5.16 10.4 26.2 54.46 26.2 81.8l20-5.66c-6.03-32.67-9.03-44.34-32.03-66.55z" class="I"/><path d="M405.56 450.87s-5.16-1.8-8.33-11.46-7.42-20.66-21.13-16.58 1.3 37.92 5.3 38.42 4.08-3 4.08-3 .42 15.83 19.92 17l6.66-8.67s.17-4.17-.83-5.83-5.67-9.88-5.67-9.88zm38.96-160.45s-39.3-63.34-52-88.76-46.52-82.75-53.58-90.08-6.64-21.22-14.68-25.44l-8.54 4.27-7 35.5a21.89 21.89 0 0 1 15.56 12c5 10.5 10 52 25.47 74.5s58.18 115.53 58.18 115.53-2.18 1.22 4.32 2.1 7-1 11-1.8 6.5-.28 9.5-4.06 8.78-1.7 10.5-8.73a105.2 105.2 0 0 1 5.9-15.9l-4.64-9.15z" class="H"/><path d="M504.73 325l-5.26-2.4-49.8-19.84-28.17 17.74A77.3 77.3 0 0 1 402.4 330s5.08 24 14.83 41.8c0 0-18.64 77.8-9.16 133.9a310.94 310.94 0 0 0 34.59-24.23C488.16 444.68 524.8 394.2 543 344c-9.83-7.2-27.24-10-38.27-19z" class="J"/><path d="M453.45 304.7l-10.2-5.28s-14.7 21.92-40.86 30.6c0 0 1 4.47 2.8 11 8.48-3.76 34.16-16.4 48.24-36.3z" class="E"/><path d="M402.4 330s30.83-9.8 44.16-37.3" class="B C D"/><path d="M460.48 345.5l-8.34 2.7a2.27 2.27 0 0 1-3-2 27.56 27.56 0 0 1 1.56-10.27c2.67-7.83 11.68-10.93 11.68-10.93l4.65 7.93-6.55 12.58z" class="E"/><path d="M469.4 239.26s-3.5-7.35 0-18.35 11.17-17 22.5-16 55.5 12.34 58.83 58c0 0 3.17 46.13-46 62.07 0 0-11.17-1.24-11.17-3.32s-.66-10.4-1.66-13.25-2.67-10.16-2.67-12.16-1-11.34-.67-14-1.33-15.67-1.33-15.67l-17.84-27.32z" class="G"/><path d="M460.48 345.5s9.3 21.74 11.87 21.4 32.88-11.22 32.38-41.93l-15.17 7-29.08 13.53z" class="E"/><path d="M473.23 233.16s-6.75 12.25-11.5 13.5-8.25-.75-9 2 1.25 4.5 1.25 7-4.75 8-4.25 10.75 14 6.5 13.5 12-14.25 1.75-15.75 3.5-7 19-2.5 26.5 15.5 6 15.5 6 5 16.45 0 31.1c0 0 24.73-2.2 40-12.9a10.2 10.2 0 0 0 3.84-5 6.5 6.5 0 0 0 .41-2.67s-9.25-3.82-9.75-12.07 4.75-11.75 7-12.5 12.25-3.75 13-8a13 13 0 0 0-4.5-12c-3.5-2.75-8 5.25-15.25 4s-7.25-12.25-5.25-16 15.25-13 15-21-26.5-.47-31.75-14.22z" class="H"/><path d="M253.36 486.8l46.75 8.12s16.37-28.9 13.9-59.84-19.5-47.84-19.5-47.84-46.7 15.77-41.14 99.56z" class="I"/><path d="M346.23 371.84v17.08l-30.5-14.25.18-15.12 30.33 12.3z" class="H"/><path d="M315.9 359.55s10.5 18.7 30.33 21.2v-8.9l-30.33-12.3z" class="K"/><path d="M198.23 366.9c-4-1.5-15-7.36-15-7.36l-17.4 8.58-13.6 17.78-50.45 33.5 2.72 4c11.975 3.878 24.265 6.71 36.73 8.46 0 0 24.65 74.73 111.5 98.72.226-.725.394-1.468.5-2.22 3.5-28.5-3-131.35-3-131.35l-52-30.1z" class="J"/><path d="M101.78 318.85l30.56-19.28 25.1 38.68s-10 16-19.1 23.1-25-5.43-25-5.43l-11.55-37.06z" class="I"/><path d="M187.24 258.9l48-47.33 45-73.67-20.33 93.4s-34 54-61.67 75.45l-21.5-20.35 10.5-27.5z" class="M"/><path d="M60.87 309.44s-37.68-45.86-50.72-44.32 36.22 60.8 39.52 61.88 18.68 4.5 18.68 4.5l-.12-13.36-7.36-8.7z" fill="#e4e9f9"/><path d="M68.35 332a.49.49 0 0 1-.41-.21C41.4 293.7 15 273.6 14.76 273.4a.5.5 0 0 1 .104-.86.5.5 0 0 1 .496.06c.27.2 26.78 20.38 53.4 58.65a.49.49 0 0 1-.13.69.47.47 0 0 1-.28.05z" class="F"/><path d="M55.55 316.8s-41.65-34.25-53-30.6 43 47.83 46.1 48.24 17.44.73 17.44.73l-2.44-11.9-8.1-6.5z" fill="#d4ddf9"/><path d="M65.1 335.68a.45.45 0 0 1-.34-.14C34.42 306.24 7.37 293 7.1 292.85a.51.51 0 0 1 .44-.91c.27.14 27.45 13.46 57.9 42.9a.5.5 0 0 1-.35.85z" class="F"/><path d="M64.07 312.13s-23.6-12.22-24.84-30.22 5.27-24 5.27-24-1-12.73 8.23-21.74 29-10 32-17.76S86 201.66 86 201.66s10.5 2 12.25 10.5l3.55-4.75s7.7 8 8.45 16.25-6 35.25-6 35.25-9.88 20.75-9.44 21.75-3.58 22.86-6.8 23.93l-23.93 7.54z" class="G"/><path d="M116.62 334.37s21.93 14.5 25 34.53-27.08 37.5-30.74 35-30.17-13.5-31.17-18-17.5-34.83-18.5-37.66 2.7-14.72 3.94-15.82 10.3-8.52 11.68-8 15.68 1 17.94 0 16.1 2 16.1 2l5.74 7.95z" class="L"/><path d="M61.23 313.25l4.25 2.16 31.57 25 7.68-9 3.5-54.5s-21-10-27-4.75-3.45 13.75 1.65 14.75S68 313.4 61.23 313.25z" class="M"/><g class="I"><path d="M97.05 340.42l13.85 7.83v-15.82l-12-4.18-1.85 12.17z"/><path d="M97.05 340.42l-9.83 12.3-42.72-32.9 19.57-7.7 32.98 28.3z"/></g><path d="M114.77 306.37a8.53 8.53 0 0 1-9.34-3c-7.85-10.26-23.5-36.28-3.2-60.47 26-31 57-4 59 0s1.07 48.6-46.46 63.47z" fill="#fad986"/><path d="M120.23 326.9s5 16 38 17l26-20 6-27s-1-14-3-16-6-9-7-11-9-11-9-11h-5l-28.5 28.5-17.5 39.5z" class="G"/><path d="M176.3 250.83s9.43 12.58 16.43 12.58 13-3 14 0-1 8-1 8 1 10 1 12-8-1-9 4 1 7 5 8 6-2 7 6 0 17-6 19-20 4-20 4 3-8-1-14-16-4-18-13 6-13 12-11 7 4 7 4 4.08-11.86-14-22.93l6.57-16.65z" class="H"/><path d="M181.524 265.835c.71-.847.253-2.395-1.018-3.46s-2.875-1.238-3.584-.39-.253 2.396 1.017 3.46 2.876 1.24 3.585.39z" class="G"/><path d="M189.23 286.9a8 8 0 1 0 0-16 8 8 0 1 0 0 16zm285-8a8 8 0 1 0 0-16 8 8 0 1 0 0 16z" class="K"/><path d="M161.748 287.84c21.97-33.653 30.777-66.812 19.67-74.065s-37.924 14.15-59.895 47.802-30.778 66.812-19.67 74.064 37.924-14.15 59.896-47.8z" class="J"/><path d="M160 230.5c-3.55-2.32-8.7-1.7-14.77 1.28-8.842 9.14-16.767 19.124-23.66 29.8-22 33.65-30.77 66.8-19.66 74.06 3.54 2.32 8.7 1.7 14.76-1.28 8.84-9.142 16.764-19.126 23.66-29.8 21.92-33.65 30.73-66.8 19.67-74.06z" class="E"/><path d="M109.75 310.1a10.2 10.2 0 0 1-11.14-3.56c-9.37-12.25-28-43.3-3.82-72.16 31-37 68-4.77 70.4 0 2.3 4.62 1.28 57.98-55.44 75.72z" class="L"/><path d="M97.17 304.6c1.017.004 2.03-.148 3-.45 52.06-16.3 58.2-65.62 57.08-77.16-13-9.3-39.4-20.16-62.5 7.4s-7.24 56.87 2.42 70.2z" class="J"/><g class="D C"><path d="M92.7 237s-12.82 33.76 20.6 62.4m-16.78-65.77s20.35-17.74 60.92 2.54m-12.56 34.4l-48.3-34.4" class="B"/><path d="M96.702 236.414c1.387-1.846 1.656-3.985.6-4.778s-3.035.06-4.422 1.906-1.656 3.985-.6 4.778 3.035-.06 4.422-1.906z" fill="#0cd0e5"/></g><path d="M183.23 372.9s14-43 42-66c0 0 31 9 51 45 0 0-28 53-47 75l-46-54z" fill="#fff1b6"/><path d="M209.06 327.4l-8.83-6c-2.83-1.94-22.8 1.6-34.4 10.15s-16.67 19-15.35 26.48 57.08-15.1 57.08-15.1l1.5-15.52z" class="E"/><path d="M186.23 329.9c-7 4-10 18-15 21s-38 8-69 28l-5-4s-20.9 11.83-24.57 33.72c11 7.06 24.75 13.2 41.75 17.8 23.16-11 55.72-44.6 60.82-56.5l14-3 15-31c0-1 .2-5.52.2-5.52s-11.2-4.48-18.2-.48z" class="M"/><path d="M192.23 335.9s5-3 12 0m-13 7s5-3 12 0" class="B C D"/><path d="M183.23 372.9s14-43 42-66c0 0 31 9 51 45 0 0-28 53-47 75l-46-54z" class="J"/><path d="M228.23 317.9s6-31 15-54 31-112 37-126-5-61 3-69 10-3 11 0-2 7 0 10 13 0 17-5-3-20 2-23 10 6 11 11c0 0 3 0 5 7s-15 35-17 49-10 167-47 226l-37-26z" class="H"/><path d="M243.23 263.9c9-23 31-112 37-126" class="B C D"/><path d="M225.23 306.9c-2.793 2.312-5.447 4.787-7.95 7.4 8.58 4.24 33.54 18.62 52.25 49.9l6.7-12.3c-20-36-51-45-51-45z" class="E"/><path d="M316.23 81.9a29.9 29.9 0 0 0 8-21m-204 308s-15.5 5.5-24 17" class="B C D"/><path d="M28.8 319.86c-1.64 19.27.5 62.23 45.77 90a69.76 69.76 0 0 1 27.22-35.91s-36.07-63.77-73-54.1z" class="I"/><path d="M101.78 373.9s-36.22-64-73.22-54m196.67-13s31 9 51 45c0 0-28 53-47 75" class="B C D"/><path d="M243.98 416.4h15v36.25h-15z" class="E"/><path d="M185.1 367.8s-7.52 16.6-7.06 29.1" class="B C D"/><path d="M329.4 290.42s2.1 17.74-16.9 25.5c0 0 10.08 20.95 3.42 43.64 0 0 15.33 14.36 33.66 12s17.34-36.45 13.67-52.73-8-25.6-8-25.6-12 6.04-25.84-2.8z" class="H"/><g stroke="#fff" class="C"><path d="M327.76 340.3a12.04 12.04 0 1 0 0-24.08 12.04 12.04 0 0 0-12.04 12.04 12.05 12.05 0 0 0 12.04 12.04zm28.16-5.65a12.05 12.05 0 0 0 12.04-12.04 12.05 12.05 0 0 0-12.04-12.04 12.04 12.04 0 1 0 0 24.08z"/><path d="M339.64 326.26s2.1-2.3 4.6-.75" class="B"/></g><path d="M329.176 331.83c1.165-.254 1.8-1.838 1.44-3.537s-1.616-2.872-2.78-2.618-1.8 1.838-1.44 3.538 1.616 2.872 2.782 2.617zm25.21-6.157c1.165-.255 1.8-1.84 1.44-3.538s-1.616-2.872-2.78-2.618-1.8 1.838-1.44 3.538 1.616 2.872 2.782 2.618z" class="G"/><path d="M342.73 330.04l7 15-5.5-.5" class="B C D"/><path d="M326.5 350.73a5.22 5.22 0 1 0 0-10.44 5.22 5.22 0 0 0 0 10.44zm37.43-8.5a5.22 5.22 0 1 0 0-10.44 5.22 5.22 0 0 0 0 10.44z" class="K"/><path d="M339.8 356.58a10.57 10.57 0 0 0 11.08 0m-21.42-36.25a7.09 7.09 0 0 0-5.9 1.33m32.36-6.03A7.12 7.12 0 0 0 350 317m129.13-74a7.08 7.08 0 0 0-5.75-1.89" class="B C D"/><path d="M346.23 388.92l-15.25 17.25-20.5-25.42 5.24-6.08 30.5 14.25zm0-.02l10.13 9.88s4.12-8.38 0-14.75a21.52 21.52 0 0 0-10.13-8.38v13.25z" class="I"/><path d="M265 489.16l29 4.25s10.23-8 21.74-9.75 32.47-16.5 36.5-24.75 2.77-34 14.52-36.5 12.25 4.25 12.5 4.5 6 1.25 6.25 10c0 0 5 3.25 3.5 7.75s-4.75 3-4.75 3-.75 12-12 14.5c0 0-27.17 61.1-61.75 73.1s-45.92-11.34-47.25-23.34c-.74-7.627-.148-15.326 1.75-22.75z" class="H"/><path d="M299.24 489.93s-11.5 6-15.76 15.48m95.75-78.5s-9.17-1.83-13.33 5.34m19.58 4.66s-9.58-5.5-12.92 2.5m11.67 8.26s-1.17-.25-1.5-2.4" class="B C D"/><path d="M474.103 248.908c.986-1.433.99-3.143.007-3.82s-2.58-.063-3.565 1.37-1 3.143-.007 3.82 2.58.063 3.565-1.37z" class="G"/><path d="M482.23 308.4c-9.75 4.25-21.75 6-21.75 6a63.31 63.31 0 0 1 2.21 17.59c18.96-5.36 19.54-23.6 19.54-23.6z" class="K"/><path d="M324.9 84.64S313.28 107 312.23 117.9l-.9 9.32M423 350.73s-25.7 69.62-16.36 151.6m53.84-156.83s-23.87 48.8-17.9 136.07" class="B C D"/><path d="M413.966 375.656l28.302 6.32-3.705 16.592c-1.746 7.815-9.497 12.736-17.312 11s-12.737-9.496-11-17.312l3.706-16.6zm54.204 12.166l28.42 6.38-3.74 16.66a14.57 14.57 0 0 1-17.4 11.02c-7.848-1.762-12.782-9.553-11.02-17.4l3.74-16.66z" class="E"/><g class="C D"><path d="M504.48 378.66s2.12 14.32 2.83 32.1" class="B"/><path d="M459.1 368.83a1.71 1.71 0 0 0 0-3.42 1.71 1.71 0 0 0 0 3.42zm-7.73 39.04a1.71 1.71 0 1 0 0-3.42 1.71 1.71 0 1 0 0 3.42zm-4.8 46.43a1.71 1.71 0 1 0 0-3.42 1.71 1.71 0 1 0 0 3.42z"/><path d="M380.73 430.5s4-2.58 7.33 1.76m-4.58 8.8s3.42-1 7.08 3.16m-5.08 14.02a7.67 7.67 0 0 0 0-2.92m-39.25-66.43a164.69 164.69 0 0 1 3.77 25.67M97.05 340.4a186.8 186.8 0 0 1 3.18 21.5" class="B"/><path d="M94.27 350.42a1.38 1.38 0 0 0 0-2.76 1.38 1.38 0 0 0 0 2.76zm249.6 47.8a1.38 1.38 0 1 0 0-2.76 1.38 1.38 0 0 0 0 2.76zm2.36 10.7a1.38 1.38 0 0 0 0-2.76 1.38 1.38 0 0 0 0 2.76zM94.86 357.84a1.38 1.38 0 1 0 0-2.76 1.38 1.38 0 0 0 0 2.76zM318.4 423.4h19.88v4.25H318.4z"/></g><path d="M38.16 387.52c12.957 0 23.46-10.503 23.46-23.46S51.117 340.6 38.16 340.6 14.7 351.103 14.7 364.06s10.503 23.46 23.46 23.46z" class="N"/><path d="M38.16 371.18a7.12 7.12 0 1 0 0-14.24 7.12 7.12 0 1 0 0 14.24z" class="O"/><path d="M363.93 547.5c11.42 0 20.68-9.26 20.68-20.68s-9.26-20.68-20.68-20.68-20.68 9.26-20.68 20.68 9.26 20.68 20.68 20.68z" class="N"/><path d="M363.93 533.08a6.27 6.27 0 1 0 0-12.54 6.27 6.27 0 1 0 0 12.54z" class="O"/><path d="M209.06 197.07c7.428 0 13.45-6.022 13.45-13.45s-6.022-13.45-13.45-13.45-13.45 6.022-13.45 13.45 6.022 13.45 13.45 13.45z" class="N"/><path d="M209.06 187.7a4.08 4.08 0 0 0 0-8.16 4.08 4.08 0 0 0 0 8.16z" class="O"/></svg>