<svg xmlns="http://www.w3.org/2000/svg" width="80" height="80" fill="none"><path d="M40 80c22.09 0 40-17.91 40-40S62.09 0 40 0 0 17.91 0 40s17.91 40 40 40z" fill="#5edfff"/><g fill="#fff"><path fill-rule="evenodd" d="M24.375 52.5c0 1.726 1.4 3.125 3.125 3.125 1.69-.05 3.032-1.435 3.03-3.125V31.406a.89.89 0 0 0 0-.281l-2.344-6.25a.81.81 0 0 0-.734-.465c-.314 0-.6.18-.734.465l-2.344 6.25a.89.89 0 0 0 0 .281V52.5zm1.563 0V31.547l1.563-4.172 1.563 4.172V52.5c0 .863-.7 1.563-1.562 1.563s-1.562-.7-1.562-1.562z"/><path d="M29.844 50.938h-4.688a.781.781 0 1 1 0-1.562h4.688a.782.782 0 1 1 0 1.563zm0-18.75h-4.688a.781.781 0 1 1 0-1.562h4.688a.781.781 0 1 1 0 1.563zM53.28 55.625h-4.687a.78.78 0 0 1-.781-.781V33.75a.782.782 0 1 1 1.563 0v20.313H52.5V33.75a.76.76 0 0 1 .22-.55.77.77 0 0 1 .547-.23.78.78 0 0 1 .781.781v21.094a.78.78 0 0 1-.766.781z"/><path fill-rule="evenodd" d="M46.61 32.418a4.69 4.69 0 0 0 4.327 2.894c1.24.003 2.432-.486 3.313-1.36a4.69 4.69 0 0 0 0-6.641l-2.766-2.75a.75.75 0 0 0-1.094 0l-2.766 2.75a4.69 4.69 0 0 0-1.014 5.106zm2.124-3.95l2.203-2.25 2.203 2.25c.587.586.917 1.382.917 2.21s-.33 1.625-.917 2.21c-.776.853-1.958 1.2-3.077.928s-2-1.157-2.268-2.276.083-2.3.938-3.073z"/><path d="M50.938 32.25c.863 0 1.563-.7 1.563-1.562s-.7-1.562-1.562-1.562-1.562.7-1.562 1.563.7 1.563 1.563 1.563z"/><path d="M50.156 26h1.563v4.688h-1.562zM36.203 48.453a.78.78 0 0 1-.734-.828l1.406-22.516a.78.78 0 0 1 .781-.734h3.125a.78.78 0 0 1 .781.734l1.453 22.516a.78.78 0 0 1-.734.828.83.83 0 0 1-.828-.734L40 25.938h-1.562L37.03 47.72a.78.78 0 0 1-.828.734z"/><path fill-rule="evenodd" d="M37.078 55.625h2.234c2.25 0 5.703-.14 6.734-1.125.24-.24.3-.602.156-.906l-3.125-6.25c-.134-.266-.405-.434-.703-.438h-6.25c-.298.003-.57.172-.703.438l-3.125 6.25c-.127.272-.09.592.094.828.172.266.72.97 4.688 1.203zm7.36-2.03c-3.453.664-7 .664-10.453 0l2.594-5.156h5.28l2.578 5.156z"/><path d="M41.563 44.172h-4.97c-.428-.008-.773-.353-.78-.78a.78.78 0 0 1 .781-.781h4.97a.782.782 0 1 1 0 1.563zM53.28 40h-4.687a.781.781 0 1 1 0-1.562h4.687a.781.781 0 1 1 0 1.563z"/></g></svg>