<svg xmlns="http://www.w3.org/2000/svg" width="107" height="25" fill="none"><g clip-path="url(#A)"><path d="M17.915 24.027l-4.9-4.9-4.888 4.9-6.113-6.113c-2.7-2.7-2.7-7.077 0-9.777l6.113-6.113c2.7-2.7 7.077-2.7 9.777 0l6.113 6.113c2.7 2.7 2.7 7.077 0 9.777l-6.113 6.113z" fill="#3e64ff"/><path d="M16.082 9.97a4.32 4.32 0 0 1 0 6.113l-3.057 3.055-3.055-3.055c-1.688-1.688-1.688-4.425 0-6.113s4.425-1.688 6.113 0z" fill="#5edfff"/><path d="M41.948 6.16h2.405V20.8H42.47l-6.9-9.934V20.8h-2.405V6.16h1.882l6.9 9.934V6.16zm10.118 14.91c-1.534 0-2.837-.53-3.91-1.6s-1.6-2.363-1.6-3.91.537-2.85 1.6-3.91 2.377-1.6 3.91-1.6c1.548 0 2.85.53 3.91 1.6 1.074 1.06 1.6 2.363 1.6 3.91s-.537 2.85-1.6 3.91c-1.06 1.06-2.363 1.6-3.91 1.6zm-2.32-3.137c.627.628 1.4.94 2.32.94s1.694-.314 2.32-.94.94-1.415.94-2.363-.314-1.736-.94-2.363-1.4-.94-2.32-.94-1.694.314-2.32.94-.94 1.415-.94 2.363.314 1.736.94 2.363zm18.167-7.592h2.26V20.8h-2.26v-1.506c-.85 1.185-2.07 1.778-3.66 1.778-1.436 0-2.663-.53-3.68-1.6-1.018-1.073-1.527-2.377-1.527-3.91 0-1.548.51-2.85 1.527-3.91s2.245-1.6 3.68-1.6c1.6 0 2.81.586 3.66 1.757v-1.485zm-5.668 7.634c.627.627 1.415.94 2.363.94s1.736-.314 2.363-.94c.627-.64.94-1.443.94-2.405s-.314-1.757-.94-2.384c-.627-.64-1.415-.962-2.363-.962s-1.736.32-2.363.962c-.627.627-.94 1.422-.94 2.384s.314 1.764.94 2.405zm16.06-7.905c1.2 0 2.168.383 2.907 1.15s1.108 1.82 1.108 3.158v6.42h-2.26v-6.2c0-.78-.21-1.38-.627-1.8s-1-.627-1.715-.627c-.795 0-1.436.25-1.924.753-.488.488-.732 1.24-.732 2.26V20.8h-2.26V10.343h2.26v1.338c.683-1.074 1.764-1.6 3.242-1.6zm8.476 3.158c0 .348.188.627.565.836.4.195.858.37 1.4.523l1.673.502c.558.195 1.025.53 1.4 1.004.4.46.586 1.046.586 1.757 0 1.004-.4 1.792-1.17 2.363-.767.572-1.736.857-2.907.857-1.032 0-1.917-.216-2.656-.648s-1.276-1.032-1.6-1.8l1.945-1.13C86.367 18.5 87.14 19 88.326 19s1.778-.4 1.778-1.17c0-.335-.195-.607-.586-.816-.376-.21-.843-.383-1.4-.523l-1.652-.523c-.558-.195-1.032-.516-1.422-.962-.376-.46-.565-1.04-.565-1.736 0-.962.362-1.736 1.088-2.32.74-.586 1.652-.878 2.74-.878.864 0 1.63.195 2.3.586a3.83 3.83 0 0 1 1.569 1.589l-1.903 1.066c-.362-.795-1.018-1.192-1.966-1.192-.432 0-.795.098-1.088.293-.293.18-.44.453-.44.816zm15.627-2.886h2.26V20.8h-2.26v-1.506c-.85 1.185-2.07 1.778-3.66 1.778-1.436 0-2.663-.53-3.68-1.6-1.018-1.073-1.527-2.377-1.527-3.91 0-1.548.51-2.85 1.527-3.91s2.245-1.6 3.68-1.6c1.6 0 2.8.586 3.66 1.757v-1.485zm-5.667 7.634c.627.627 1.415.94 2.363.94s1.736-.314 2.363-.94c.627-.64.94-1.443.94-2.405s-.314-1.757-.94-2.384c-.627-.64-1.415-.962-2.363-.962s-1.736.32-2.363.962c-.627.627-.94 1.422-.94 2.384s.314 1.764.94 2.405z" fill="#0f1c2a"/></g><defs><clipPath id="A"><path fill="#fff" d="M0 0h107v25H0z"/></clipPath></defs></svg>