<svg xmlns="http://www.w3.org/2000/svg" width="40" height="37" fill="none"><path opacity=".1" fill-rule="evenodd" d="M16.006 19.25V37H.01V19.365c-.075-2.536.282-4.918 1.07-7.146S2.976 8.03 4.403 6.34 7.538 3.247 9.53 2.132 13.678.307 16.006 0v7.607c-2.854 1-4.806 2.478-5.858 4.438S8.57 16.406 8.57 19.25h7.435zm23.994 0V37H24.004V19.365c-.075-2.536.282-4.918 1.07-7.146s1.896-4.188 3.323-5.88 3.135-3.093 5.125-4.207S37.672.307 40 0v7.607c-2.854 1-4.806 2.478-5.858 4.438s-1.577 4.36-1.577 7.204H40z" fill="#fff"/></svg>