<svg xmlns="http://www.w3.org/2000/svg" width="80" height="80" fill="none"><path d="M40 80c22.09 0 40-17.91 40-40S62.09 0 40 0 0 17.91 0 40s17.91 40 40 40z" fill="#3e64ff"/><g fill="#fff"><path d="M54.844 52.5H25.156a.78.78 0 0 1-.781-.781V32.97a.78.78 0 0 1 .781-.781H47.03a.78.78 0 1 1 0 1.563H25.938v17.188h28.125v-5.47a.78.78 0 1 1 1.563 0v6.25a.78.78 0 0 1-.781.781z"/><path d="M47.03 36.875H25.938a.78.78 0 1 1 0-1.562H47.03a.78.78 0 1 1 0 1.563z"/><path d="M23.672 55.625h32.656c.644.004 1.262-.25 1.717-.705s.7-1.074.705-1.717V51.72a.78.78 0 0 0-.781-.781H22.03a.78.78 0 0 0-.781.781v1.484c-.004.644.25 1.262.705 1.717s1.074.7 1.717.705zm-.86-2.422V52.5h34.375v.703a.86.86 0 0 1-.859.859H23.672a.86.86 0 0 1-.859-.859zM47.03 46.25h10.94a.78.78 0 0 0 .781-.781V25.156a.78.78 0 0 0-.781-.781H47.03a.78.78 0 0 0-.781.781V45.47a.78.78 0 0 0 .781.781zm10.156-1.562H47.81v-18.75h9.375v18.75z" fill-rule="evenodd"/><path d="M53.28 43.125H51.72a.78.78 0 1 1 0-1.562h1.562a.78.78 0 1 1 0 1.563z"/></g></svg>